<svg viewBox="0 0 720 300" xmlns="http://www.w3.org/2000/svg" font-family="Helvetica Neue,Arial,sans-serif" font-size="12">
  <text x="360" y="20" text-anchor="middle" font-size="13" font-weight="bold">Difficult-subset AUROC by method (higher is better)</text>
  <line x1="70" y1="250" x2="700" y2="250" stroke="#888"/>
  <line x1="70" y1="60" x2="70" y2="250" stroke="#888"/>
  <g fill="#666" text-anchor="end">
    <text x="64" y="253">0.4</text><text x="64" y="215">0.5</text><text x="64" y="177">0.6</text>
    <text x="64" y="139">0.7</text><text x="64" y="101">0.8</text><text x="64" y="63">0.9</text>
  </g>
  <g stroke="#eee"><line x1="70" y1="215" x2="700" y2="215"/><line x1="70" y1="177" x2="700" y2="177"/>
    <line x1="70" y1="139" x2="700" y2="139"/><line x1="70" y1="101" x2="700" y2="101"/><line x1="70" y1="63" x2="700" y2="63"/></g>
  <g>
    <text x="170" y="270" text-anchor="middle" font-weight="bold">WADI</text>
    <rect x="96"  y="137.5" width="18" height="112.5" fill="#9fb8cf"/>    <rect x="118" y="238.6" width="18" height="11.4"  fill="#c9c9c9"/>    <rect x="140" y="191.5" width="18" height="58.5"  fill="#e3b7a0"/>    <rect x="162" y="194.9" width="18" height="55.1"  fill="#d59a7a"/>    <rect x="184" y="180.8" width="18" height="69.2"  fill="#b5764f"/>    <rect x="206" y="126.1" width="18" height="123.9" fill="#1f4e79"/>  </g>
  <g>
    <text x="380" y="270" text-anchor="middle" font-weight="bold">HAI</text>
    <rect x="306" y="164.5" width="18" height="85.5"  fill="#9fb8cf"/>    <rect x="328" y="114.0" width="18" height="136.0" fill="#c9c9c9"/>    <rect x="350" y="217.0" width="18" height="33.0"  fill="#e3b7a0"/>    <rect x="372" y="222.5" width="18" height="27.5"  fill="#d59a7a"/>    <rect x="416" y="90.2"  width="18" height="159.8" fill="#1f4e79"/>  </g>
  <g>
    <text x="590" y="270" text-anchor="middle" font-weight="bold">SKAB</text>
    <rect x="516" y="201.4" width="18" height="48.6"  fill="#9fb8cf"/>    <rect x="538" y="210.5" width="18" height="39.5"  fill="#c9c9c9"/>    <rect x="560" y="177.6" width="18" height="72.4"  fill="#e3b7a0"/>    <rect x="582" y="209.3" width="18" height="40.7"  fill="#d59a7a"/>    <rect x="626" y="170.2" width="18" height="79.8"  fill="#1f4e79"/>  </g>
  <g font-size="11">
    <rect x="80"  y="34" width="12" height="12" fill="#9fb8cf"/><text x="96"  y="44">IsolationForest</text>
    <rect x="180" y="34" width="12" height="12" fill="#c9c9c9"/><text x="196" y="44">AutoEncoder</text>
    <rect x="285" y="34" width="12" height="12" fill="#e3b7a0"/><text x="301" y="44">USAD</text>
    <rect x="345" y="34" width="12" height="12" fill="#d59a7a"/><text x="361" y="44">TranAD</text>
    <rect x="415" y="34" width="12" height="12" fill="#b5764f"/><text x="431" y="44">GDN</text>
    <rect x="470" y="34" width="12" height="12" fill="#1f4e79"/><text x="486" y="44">VaDE-hard+resid (ours)</text>
  </g>
</svg>